<svg xmlns="http://www.w3.org/2000/svg" xmlns:xlink="http://www.w3.org/1999/xlink" width="500" zoomAndPan="magnify" viewBox="0 0 375 374.999991" height="500" preserveAspectRatio="xMidYMid meet" version="1.0"><path fill="#214a50" d="M 187.644531 327.261719 C 110.660156 327.261719 48.023438 264.628906 48.023438 187.644531 C 48.023438 110.660156 110.660156 48.027344 187.644531 48.027344 C 264.628906 48.027344 327.261719 110.660156 327.261719 187.644531 C 327.261719 264.628906 264.628906 327.261719 187.644531 327.261719 Z M 187.644531 56.082031 C 115.097656 56.082031 56.078125 115.101562 56.078125 187.644531 C 56.078125 260.1875 115.101562 319.207031 187.644531 319.207031 C 260.183594 319.207031 319.207031 260.1875 319.207031 187.644531 C 319.207031 115.101562 260.1875 56.082031 187.644531 56.082031 Z M 187.644531 56.082031 " fill-opacity="1" fill-rule="nonzero"/><path fill="#214a50" d="M 192.183594 137.03125 C 201.164062 137.082031 209.605469 138.546875 217.511719 141.421875 L 217.511719 158.046875 L 209.886719 158.046875 C 208.503906 153.378906 206.371094 149.875 203.5 147.542969 C 200.628906 145.207031 196.855469 143.960938 192.179688 143.804688 L 192.179688 180.835938 C 199.367188 184.273438 204.757812 187.351562 208.347656 190.070312 C 211.941406 192.792969 214.683594 195.820312 216.589844 199.15625 C 218.488281 202.488281 219.4375 206.417969 219.4375 210.933594 C 219.4375 219.296875 217.101562 225.753906 212.429688 230.296875 C 207.757812 234.835938 200.859375 237.464844 191.722656 238.1875 L 191.722656 252.503906 L 183.714844 252.503906 L 183.714844 238.339844 C 179.148438 238.238281 174.285156 237.699219 169.125 236.722656 C 163.972656 235.75 159.542969 234.570312 155.847656 233.183594 L 155.847656 216.246094 L 163.542969 216.246094 C 164.78125 221.535156 166.972656 225.394531 170.128906 227.832031 C 173.28125 230.269531 177.8125 231.59375 183.714844 231.792969 L 183.714844 191.921875 L 181.789062 191 C 175.066406 187.765625 170.089844 184.929688 166.855469 182.492188 C 163.621094 180.0625 161.132812 177.324219 159.386719 174.296875 C 157.640625 171.269531 156.769531 167.730469 156.769531 163.671875 C 156.769531 159.769531 157.492188 156.28125 158.925781 153.203125 C 160.363281 150.121094 162.328125 147.476562 164.8125 145.269531 C 167.300781 143.0625 170.21875 141.308594 173.550781 140 C 176.886719 138.691406 180.425781 137.855469 184.175781 137.5 L 184.175781 122.792969 L 192.179688 122.792969 L 192.179688 137.03125 Z M 184.179688 177.753906 L 184.179688 144.035156 C 179.765625 144.601562 176.210938 146.28125 173.519531 149.078125 C 170.828125 151.871094 169.480469 155.351562 169.480469 159.507812 C 169.480469 163.664062 170.621094 167.121094 172.902344 169.863281 C 175.1875 172.609375 178.945312 175.234375 184.179688 177.753906 Z M 191.730469 194.917969 L 191.730469 231.566406 C 196.496094 231.050781 200.171875 229.316406 202.730469 226.367188 C 205.296875 223.417969 206.578125 219.449219 206.578125 214.476562 C 206.578125 210.058594 205.398438 206.339844 203.039062 203.316406 C 200.675781 200.292969 196.910156 197.484375 191.730469 194.917969 Z M 191.730469 194.917969 " fill-opacity="1" fill-rule="nonzero"/></svg>