<svg xmlns="http://www.w3.org/2000/svg" xmlns:xlink="http://www.w3.org/1999/xlink" width="500" zoomAndPan="magnify" viewBox="0 0 375 374.999991" height="500" preserveAspectRatio="xMidYMid meet" version="1.0"><defs><clipPath id="id1"><path d="M 46.800781 46.800781 L 328.050781 46.800781 L 328.050781 328.050781 L 46.800781 328.050781 Z M 46.800781 46.800781 " clip-rule="nonzero"/></clipPath></defs><g clip-path="url(#id1)"><path fill="#214a50" d="M 187.425781 53.617188 C 113.644531 53.617188 53.59375 113.644531 53.59375 187.425781 C 53.59375 261.210938 113.644531 321.261719 187.425781 321.261719 C 261.210938 321.261719 321.234375 261.210938 321.234375 187.425781 C 321.234375 113.644531 261.210938 53.617188 187.425781 53.617188 Z M 187.425781 328.050781 C 109.871094 328.050781 46.800781 264.980469 46.800781 187.425781 C 46.800781 109.871094 109.871094 46.800781 187.425781 46.800781 C 264.980469 46.800781 328.050781 109.871094 328.050781 187.425781 C 328.050781 264.980469 264.980469 328.050781 187.425781 328.050781 " fill-opacity="1" fill-rule="nonzero"/></g><path fill="#214a50" d="M 171.519531 295.640625 L 203.332031 295.640625 L 203.332031 277.164062 C 203.332031 275.566406 204.429688 274.195312 206.003906 273.84375 C 216.066406 271.597656 225.605469 267.578125 234.394531 261.933594 C 235.742188 261.085938 237.539062 261.285156 238.664062 262.40625 L 251.445312 275.441406 L 273.96875 252.519531 L 261.085938 239.4375 C 259.984375 238.3125 259.8125 236.566406 260.636719 235.242188 C 266.226562 226.429688 270.171875 216.714844 272.320312 206.378906 C 272.671875 204.804688 274.042969 203.65625 275.667969 203.65625 L 293.769531 203.65625 L 293.769531 171.195312 L 275.667969 171.195312 C 274.042969 171.195312 272.671875 170.074219 272.320312 168.5 C 270.097656 158.261719 266.179688 148.523438 260.636719 139.585938 C 259.8125 138.261719 259.984375 136.539062 261.085938 135.417969 L 273.96875 122.332031 L 251.472656 99.4375 L 238.664062 112.644531 C 237.539062 113.792969 235.714844 114.019531 234.367188 113.117188 C 225.703125 107.449219 216.164062 103.457031 206.003906 101.234375 C 204.457031 100.910156 203.332031 99.511719 203.332031 97.914062 L 203.332031 79.210938 L 171.519531 79.210938 L 171.519531 97.6875 C 171.519531 99.285156 170.421875 100.660156 168.847656 101.007812 C 158.785156 103.28125 149.25 107.277344 140.460938 112.894531 C 139.113281 113.769531 137.3125 113.570312 136.191406 112.417969 L 123.40625 99.410156 L 100.882812 122.332031 L 113.769531 135.417969 C 114.867188 136.539062 115.066406 138.289062 114.21875 139.609375 C 108.625 148.425781 104.703125 158.136719 102.53125 168.476562 C 102.183594 170.046875 100.808594 171.195312 99.1875 171.195312 L 81.082031 171.195312 L 81.082031 203.65625 L 99.1875 203.65625 C 100.785156 203.65625 102.183594 204.78125 102.507812 206.351562 C 104.730469 216.589844 108.675781 226.328125 114.21875 235.265625 C 115.066406 236.589844 114.867188 238.3125 113.769531 239.4375 L 100.882812 252.519531 L 123.40625 275.441406 L 136.191406 262.40625 C 137.339844 261.257812 139.136719 261.085938 140.484375 261.957031 C 149.148438 267.625 158.6875 271.621094 168.847656 273.84375 C 170.398438 274.167969 171.519531 275.566406 171.519531 277.164062 Z M 206.753906 302.433594 L 168.101562 302.433594 C 166.226562 302.433594 164.703125 300.910156 164.703125 299.039062 L 164.703125 279.863281 C 155.640625 277.589844 147.050781 274.019531 139.136719 269.148438 L 125.828125 282.65625 C 124.554688 283.980469 122.257812 283.980469 120.984375 282.65625 L 93.691406 254.917969 C 92.394531 253.59375 92.394531 251.472656 93.691406 250.148438 L 107.050781 236.539062 C 102.28125 228.375 98.738281 219.636719 96.488281 210.472656 L 77.6875 210.472656 C 75.789062 210.472656 74.265625 208.949219 74.265625 207.078125 L 74.265625 167.777344 C 74.265625 165.902344 75.789062 164.378906 77.6875 164.378906 L 96.464844 164.378906 C 98.6875 155.140625 102.234375 146.378906 107.050781 138.289062 L 93.691406 124.703125 C 92.394531 123.382812 92.394531 121.257812 93.691406 119.933594 L 120.984375 92.171875 C 122.257812 90.871094 124.554688 90.871094 125.828125 92.171875 L 139.136719 105.726562 C 147.152344 100.882812 155.714844 97.289062 164.703125 95.015625 L 164.703125 75.816406 C 164.703125 73.941406 166.226562 72.417969 168.101562 72.417969 L 206.753906 72.417969 C 208.625 72.417969 210.148438 73.941406 210.148438 75.816406 L 210.148438 95.214844 C 219.210938 97.464844 227.800781 101.058594 235.714844 105.902344 L 249 92.195312 C 249.648438 91.546875 250.523438 91.171875 251.445312 91.171875 C 252.34375 91.070312 253.21875 91.519531 253.867188 92.171875 L 281.160156 119.933594 C 282.457031 121.257812 282.457031 123.382812 281.160156 124.703125 L 267.800781 138.3125 C 272.570312 146.476562 276.117188 155.214844 278.363281 164.378906 L 297.164062 164.378906 C 299.0625 164.378906 300.585938 165.902344 300.585938 167.777344 L 300.585938 207.078125 C 300.585938 208.949219 299.0625 210.472656 297.164062 210.472656 L 278.386719 210.472656 C 276.167969 219.710938 272.621094 228.476562 267.828125 236.566406 L 281.160156 250.148438 C 282.457031 251.472656 282.457031 253.59375 281.160156 254.917969 L 253.867188 282.65625 C 252.59375 283.980469 250.296875 283.980469 249.023438 282.65625 L 235.714844 269.125 C 227.703125 273.96875 219.136719 277.5625 210.148438 279.835938 L 210.148438 299.039062 C 210.148438 300.910156 208.625 302.433594 206.753906 302.433594 " fill-opacity="1" fill-rule="nonzero"/><path fill="#214a50" d="M 187.425781 137.6875 C 160.011719 137.6875 137.714844 160.011719 137.714844 187.425781 C 137.714844 214.84375 160.011719 237.164062 187.425781 237.164062 C 214.84375 237.164062 237.140625 214.84375 237.140625 187.425781 C 237.140625 160.011719 214.84375 137.6875 187.425781 137.6875 Z M 187.425781 243.957031 C 156.265625 243.957031 130.898438 218.613281 130.898438 187.425781 C 130.898438 156.242188 156.265625 130.898438 187.425781 130.898438 C 218.585938 130.898438 243.957031 156.242188 243.957031 187.425781 C 243.957031 218.613281 218.585938 243.957031 187.425781 243.957031 " fill-opacity="1" fill-rule="nonzero"/><path fill="#214a50" d="M 202.007812 207.875 C 201.335938 207.875 200.660156 207.675781 200.0625 207.25 L 183.632812 195.691406 C 182.730469 195.066406 182.183594 194.019531 182.183594 192.917969 L 182.183594 161.984375 C 182.183594 160.109375 183.707031 158.585938 185.605469 158.585938 C 187.476562 158.585938 189 160.109375 189 161.984375 L 189 191.148438 L 203.980469 201.683594 C 205.527344 202.78125 205.878906 204.878906 204.804688 206.429688 C 204.128906 207.375 203.082031 207.875 202.007812 207.875 " fill-opacity="1" fill-rule="nonzero"/></svg>