<svg xmlns="http://www.w3.org/2000/svg" xmlns:xlink="http://www.w3.org/1999/xlink" width="500" zoomAndPan="magnify" viewBox="0 0 375 374.999991" height="500" preserveAspectRatio="xMidYMid meet" version="1.0"><defs><clipPath id="id1"><path d="M 64.195312 46.800781 L 310.832031 46.800781 L 310.832031 328 L 64.195312 328 Z M 64.195312 46.800781 " clip-rule="nonzero"/></clipPath></defs><path fill="#214a50" d="M 187.578125 155.914062 C 186.683594 155.914062 185.789062 155.871094 184.894531 155.78125 C 184.003906 155.695312 183.117188 155.5625 182.234375 155.386719 C 181.355469 155.214844 180.488281 154.996094 179.628906 154.734375 C 178.769531 154.476562 177.925781 154.171875 177.097656 153.832031 C 176.269531 153.488281 175.460938 153.105469 174.667969 152.679688 C 173.878906 152.257812 173.109375 151.796875 172.363281 151.300781 C 171.617188 150.800781 170.898438 150.269531 170.203125 149.699219 C 169.511719 149.128906 168.847656 148.527344 168.210938 147.894531 C 167.578125 147.261719 166.976562 146.597656 166.40625 145.902344 C 165.839844 145.210938 165.304688 144.492188 164.804688 143.746094 C 164.308594 143 163.847656 142.230469 163.425781 141.441406 C 163 140.648438 162.617188 139.839844 162.273438 139.011719 C 161.933594 138.183594 161.628906 137.339844 161.371094 136.480469 C 161.109375 135.621094 160.890625 134.753906 160.714844 133.875 C 160.542969 132.996094 160.410156 132.109375 160.324219 131.214844 C 160.234375 130.324219 160.191406 129.429688 160.191406 128.53125 C 160.191406 127.636719 160.234375 126.742188 160.320312 125.847656 C 160.410156 124.957031 160.542969 124.070312 160.714844 123.191406 C 160.890625 122.3125 161.109375 121.441406 161.371094 120.585938 C 161.628906 119.726562 161.929688 118.882812 162.273438 118.054688 C 162.617188 117.226562 163 116.414062 163.421875 115.625 C 163.847656 114.835938 164.308594 114.066406 164.804688 113.320312 C 165.304688 112.574219 165.835938 111.855469 166.40625 111.160156 C 166.976562 110.46875 167.578125 109.804688 168.210938 109.171875 C 168.84375 108.535156 169.507812 107.933594 170.203125 107.367188 C 170.894531 106.796875 171.617188 106.265625 172.359375 105.765625 C 173.105469 105.265625 173.875 104.808594 174.667969 104.382812 C 175.457031 103.960938 176.265625 103.578125 177.097656 103.234375 C 177.925781 102.890625 178.769531 102.589844 179.625 102.328125 C 180.484375 102.070312 181.355469 101.851562 182.234375 101.675781 C 183.113281 101.503906 184 101.371094 184.890625 101.28125 C 185.785156 101.195312 186.679688 101.152344 187.578125 101.152344 C 188.472656 101.152344 189.367188 101.195312 190.261719 101.28125 C 191.152344 101.371094 192.039062 101.5 192.917969 101.675781 C 193.800781 101.851562 194.667969 102.070312 195.527344 102.328125 C 196.382812 102.589844 197.226562 102.890625 198.058594 103.234375 C 198.886719 103.578125 199.695312 103.960938 200.484375 104.382812 C 201.277344 104.804688 202.046875 105.265625 202.792969 105.765625 C 203.539062 106.261719 204.257812 106.796875 204.949219 107.367188 C 205.644531 107.933594 206.308594 108.535156 206.941406 109.171875 C 207.574219 109.804688 208.175781 110.46875 208.746094 111.160156 C 209.316406 111.855469 209.847656 112.574219 210.347656 113.320312 C 210.847656 114.066406 211.304688 114.835938 211.730469 115.625 C 212.152344 116.417969 212.535156 117.226562 212.878906 118.054688 C 213.222656 118.882812 213.523438 119.726562 213.785156 120.585938 C 214.042969 121.445312 214.261719 122.3125 214.4375 123.191406 C 214.613281 124.070312 214.742188 124.957031 214.832031 125.851562 C 214.917969 126.742188 214.960938 127.636719 214.960938 128.535156 C 214.960938 129.429688 214.917969 130.324219 214.828125 131.21875 C 214.738281 132.109375 214.605469 132.996094 214.433594 133.875 C 214.257812 134.753906 214.039062 135.621094 213.777344 136.480469 C 213.515625 137.335938 213.214844 138.179688 212.871094 139.007812 C 212.527344 139.835938 212.144531 140.644531 211.71875 141.433594 C 211.296875 142.226562 210.835938 142.992188 210.339844 143.738281 C 209.839844 144.484375 209.308594 145.203125 208.738281 145.894531 C 208.167969 146.589844 207.566406 147.253906 206.933594 147.886719 C 206.300781 148.519531 205.636719 149.121094 204.941406 149.691406 C 204.25 150.257812 203.53125 150.792969 202.785156 151.289062 C 202.039062 151.789062 201.273438 152.25 200.480469 152.671875 C 199.691406 153.09375 198.882812 153.480469 198.054688 153.820312 C 197.226562 154.164062 196.382812 154.46875 195.523438 154.726562 C 194.667969 154.988281 193.796875 155.207031 192.917969 155.382812 C 192.039062 155.558594 191.15625 155.691406 190.261719 155.78125 C 189.371094 155.867188 188.476562 155.914062 187.578125 155.914062 Z M 187.578125 106.105469 C 186.84375 106.105469 186.113281 106.144531 185.378906 106.214844 C 184.648438 106.285156 183.921875 106.394531 183.203125 106.539062 C 182.480469 106.679688 181.769531 106.859375 181.066406 107.074219 C 180.363281 107.285156 179.671875 107.53125 178.996094 107.8125 C 178.316406 108.09375 177.652344 108.410156 177.003906 108.753906 C 176.355469 109.101562 175.726562 109.476562 175.117188 109.886719 C 174.507812 110.292969 173.917969 110.730469 173.347656 111.195312 C 172.78125 111.664062 172.238281 112.15625 171.71875 112.675781 C 171.199219 113.195312 170.707031 113.738281 170.238281 114.304688 C 169.773438 114.875 169.335938 115.460938 168.929688 116.074219 C 168.519531 116.683594 168.140625 117.3125 167.796875 117.960938 C 167.449219 118.609375 167.136719 119.273438 166.855469 119.949219 C 166.574219 120.628906 166.328125 121.320312 166.113281 122.023438 C 165.898438 122.726562 165.722656 123.4375 165.578125 124.15625 C 165.433594 124.878906 165.328125 125.601562 165.253906 126.335938 C 165.183594 127.066406 165.148438 127.796875 165.148438 128.53125 C 165.148438 129.265625 165.183594 130 165.253906 130.730469 C 165.328125 131.460938 165.433594 132.1875 165.578125 132.90625 C 165.722656 133.628906 165.898438 134.339844 166.113281 135.042969 C 166.324219 135.746094 166.574219 136.4375 166.855469 137.113281 C 167.136719 137.792969 167.449219 138.457031 167.796875 139.105469 C 168.140625 139.75 168.519531 140.378906 168.925781 140.992188 C 169.335938 141.601562 169.773438 142.191406 170.238281 142.757812 C 170.703125 143.328125 171.195312 143.871094 171.714844 144.390625 C 172.234375 144.910156 172.78125 145.402344 173.347656 145.867188 C 173.914062 146.332031 174.503906 146.769531 175.117188 147.179688 C 175.726562 147.585938 176.355469 147.964844 177.003906 148.308594 C 177.652344 148.65625 178.3125 148.96875 178.992188 149.25 C 179.671875 149.53125 180.363281 149.78125 181.066406 149.992188 C 181.769531 150.207031 182.480469 150.382812 183.199219 150.527344 C 183.921875 150.671875 184.648438 150.777344 185.378906 150.851562 C 186.109375 150.921875 186.84375 150.957031 187.578125 150.957031 C 188.3125 150.957031 189.042969 150.921875 189.773438 150.851562 C 190.507812 150.777344 191.230469 150.671875 191.953125 150.527344 C 192.671875 150.382812 193.382812 150.207031 194.085938 149.992188 C 194.789062 149.78125 195.480469 149.53125 196.160156 149.25 C 196.839844 148.96875 197.5 148.65625 198.148438 148.308594 C 198.796875 147.964844 199.425781 147.585938 200.039062 147.179688 C 200.648438 146.769531 201.238281 146.335938 201.804688 145.867188 C 202.375 145.402344 202.917969 144.910156 203.4375 144.390625 C 203.957031 143.871094 204.449219 143.328125 204.914062 142.757812 C 205.378906 142.191406 205.816406 141.601562 206.226562 140.992188 C 206.632812 140.382812 207.011719 139.75 207.359375 139.105469 C 207.703125 138.457031 208.019531 137.792969 208.296875 137.113281 C 208.578125 136.4375 208.828125 135.746094 209.039062 135.042969 C 209.253906 134.339844 209.433594 133.628906 209.574219 132.90625 C 209.71875 132.1875 209.824219 131.460938 209.898438 130.730469 C 209.96875 130 210.007812 129.265625 210.007812 128.53125 C 210.003906 127.796875 209.96875 127.066406 209.894531 126.335938 C 209.824219 125.605469 209.714844 124.878906 209.570312 124.160156 C 209.425781 123.441406 209.246094 122.730469 209.035156 122.027344 C 208.820312 121.324219 208.574219 120.632812 208.292969 119.957031 C 208.011719 119.277344 207.695312 118.613281 207.351562 117.96875 C 207.003906 117.320312 206.625 116.691406 206.21875 116.082031 C 205.808594 115.472656 205.371094 114.882812 204.90625 114.316406 C 204.441406 113.746094 203.949219 113.203125 203.429688 112.683594 C 202.910156 112.164062 202.367188 111.671875 201.800781 111.207031 C 201.230469 110.742188 200.644531 110.304688 200.03125 109.898438 C 199.421875 109.488281 198.792969 109.113281 198.144531 108.765625 C 197.5 108.417969 196.835938 108.105469 196.15625 107.824219 C 195.480469 107.542969 194.789062 107.292969 194.085938 107.082031 C 193.382812 106.867188 192.671875 106.6875 191.953125 106.542969 C 191.234375 106.402344 190.507812 106.292969 189.777344 106.21875 C 189.046875 106.148438 188.3125 106.109375 187.578125 106.109375 Z M 187.578125 106.105469 " fill-opacity="1" fill-rule="nonzero"/><g clip-path="url(#id1)"><path fill="#214a50" d="M 223.539062 253.167969 C 233.503906 239.4375 243.9375 224.125 253.109375 208.785156 C 256.476562 207.894531 259.726562 206.902344 262.871094 205.863281 C 263.183594 205.757812 263.464844 205.597656 263.710938 205.382812 C 263.960938 205.167969 264.160156 204.914062 264.304688 204.621094 C 264.453125 204.328125 264.539062 204.015625 264.5625 203.6875 C 264.585938 203.359375 264.546875 203.042969 264.441406 202.730469 C 264.339844 202.417969 264.179688 202.136719 263.964844 201.886719 C 263.75 201.640625 263.496094 201.441406 263.203125 201.292969 C 262.910156 201.148438 262.597656 201.0625 262.269531 201.035156 C 261.941406 201.011719 261.625 201.050781 261.3125 201.15625 C 259.824219 201.648438 258.289062 202.121094 256.75 202.589844 C 269.789062 179.867188 279.503906 157.542969 280.074219 140.816406 C 281.582031 141.675781 283.144531 142.425781 284.757812 143.070312 C 285.023438 143.066406 285.285156 143.019531 285.539062 142.929688 C 285.789062 142.84375 286.023438 142.714844 286.234375 142.550781 C 286.445312 142.386719 286.625 142.195312 286.773438 141.972656 C 286.921875 141.75 287.035156 141.507812 287.105469 141.25 C 287.175781 140.992188 287.203125 140.730469 287.191406 140.464844 C 287.175781 140.195312 287.121094 139.9375 287.023438 139.6875 C 286.925781 139.4375 286.789062 139.210938 286.621094 139.007812 C 286.449219 138.800781 286.25 138.628906 286.019531 138.488281 C 284.136719 137.347656 282.105469 136.257812 280 135.191406 C 279.933594 133.71875 279.835938 132.253906 279.703125 130.785156 C 279.566406 129.320312 279.398438 127.859375 279.195312 126.402344 C 278.992188 124.945312 278.753906 123.492188 278.480469 122.046875 C 278.207031 120.601562 277.902344 119.160156 277.558594 117.730469 C 277.21875 116.296875 276.839844 114.875 276.433594 113.460938 C 276.023438 112.046875 275.578125 110.644531 275.101562 109.253906 C 274.625 107.859375 274.117188 106.480469 273.574219 105.113281 C 273.03125 103.746094 272.457031 102.390625 271.847656 101.050781 C 271.242188 99.707031 270.601562 98.382812 269.933594 97.074219 C 269.261719 95.761719 268.558594 94.46875 267.828125 93.191406 C 267.09375 91.914062 266.332031 90.65625 265.539062 89.417969 C 264.75 88.175781 263.925781 86.957031 263.074219 85.753906 C 262.226562 84.554688 261.347656 83.375 260.4375 82.214844 C 259.53125 81.054688 258.597656 79.917969 257.636719 78.804688 C 256.675781 77.6875 255.6875 76.597656 254.675781 75.53125 C 253.660156 74.464844 252.621094 73.421875 251.558594 72.402344 C 250.496094 71.386719 249.410156 70.394531 248.296875 69.425781 C 247.1875 68.460938 246.054688 67.523438 244.898438 66.609375 C 243.742188 65.699219 242.566406 64.8125 241.371094 63.957031 C 240.171875 63.101562 238.953125 62.277344 237.71875 61.476562 C 236.480469 60.679688 235.222656 59.914062 233.949219 59.175781 C 232.675781 58.4375 231.386719 57.730469 230.078125 57.054688 C 228.769531 56.378906 227.449219 55.734375 226.109375 55.121094 C 224.769531 54.507812 223.417969 53.925781 222.050781 53.378906 C 220.6875 52.832031 219.308594 52.316406 217.917969 51.832031 C 216.527344 51.347656 215.125 50.898438 213.714844 50.484375 C 212.300781 50.070312 210.878906 49.6875 209.449219 49.339844 C 208.019531 48.992188 206.582031 48.675781 205.136719 48.398438 C 203.691406 48.117188 202.238281 47.875 200.78125 47.664062 C 199.324219 47.453125 197.863281 47.277344 196.398438 47.136719 C 194.933594 47 193.464844 46.894531 191.992188 46.824219 C 190.523438 46.753906 189.050781 46.71875 187.578125 46.71875 C 186.105469 46.71875 184.636719 46.753906 183.164062 46.824219 C 181.695312 46.894531 180.226562 47 178.761719 47.140625 C 177.296875 47.28125 175.832031 47.457031 174.375 47.664062 C 172.917969 47.875 171.46875 48.121094 170.023438 48.402344 C 168.578125 48.679688 167.136719 48.992188 165.707031 49.34375 C 164.277344 49.691406 162.855469 50.074219 161.441406 50.488281 C 160.03125 50.90625 158.628906 51.355469 157.238281 51.835938 C 155.847656 52.320312 154.46875 52.835938 153.101562 53.382812 C 151.738281 53.933594 150.382812 54.515625 149.046875 55.128906 C 147.707031 55.742188 146.382812 56.386719 145.078125 57.0625 C 143.769531 57.738281 142.476562 58.445312 141.203125 59.183594 C 139.929688 59.921875 138.675781 60.6875 137.4375 61.488281 C 136.199219 62.285156 134.984375 63.113281 133.785156 63.96875 C 132.585938 64.824219 131.410156 65.707031 130.253906 66.621094 C 129.097656 67.53125 127.964844 68.472656 126.855469 69.4375 C 125.746094 70.40625 124.65625 71.398438 123.59375 72.414062 C 122.53125 73.433594 121.492188 74.476562 120.480469 75.542969 C 119.464844 76.613281 118.476562 77.703125 117.515625 78.816406 C 116.554688 79.933594 115.621094 81.070312 114.714844 82.230469 C 113.808594 83.386719 112.929688 84.570312 112.078125 85.769531 C 111.226562 86.972656 110.40625 88.191406 109.613281 89.433594 C 108.820312 90.675781 108.058594 91.933594 107.328125 93.210938 C 106.59375 94.488281 105.894531 95.78125 105.222656 97.089844 C 104.550781 98.402344 103.914062 99.726562 103.304688 101.066406 C 102.699219 102.410156 102.125 103.761719 101.582031 105.132812 C 101.039062 106.5 100.53125 107.882812 100.054688 109.273438 C 99.578125 110.667969 99.132812 112.070312 98.722656 113.484375 C 98.316406 114.898438 97.9375 116.320312 97.597656 117.75 C 97.257812 119.183594 96.949219 120.621094 96.675781 122.070312 C 96.402344 123.515625 96.164062 124.96875 95.960938 126.425781 C 95.757812 127.882812 95.589844 129.34375 95.457031 130.8125 C 95.320312 132.277344 95.222656 133.746094 95.160156 135.214844 C 90.839844 137.335938 86.742188 139.820312 82.867188 142.675781 C 82.605469 142.871094 82.390625 143.113281 82.222656 143.394531 C 82.054688 143.675781 81.949219 143.980469 81.902344 144.304688 C 81.855469 144.632812 81.871094 144.953125 81.953125 145.273438 C 82.035156 145.589844 82.175781 145.878906 82.371094 146.144531 C 82.871094 146.800781 83.53125 147.128906 84.355469 147.132812 C 84.875 147.132812 91.640625 142.675781 95.085938 140.816406 C 95.480469 152.191406 100.167969 167.03125 109.039062 185.023438 C 107.59375 185.285156 106.230469 185.773438 104.945312 186.492188 C 103.664062 187.207031 102.53125 188.113281 101.554688 189.210938 L 101.332031 189.433594 C 101.011719 189.792969 100.710938 190.171875 100.433594 190.5625 C 100.152344 190.957031 99.894531 191.363281 99.65625 191.78125 C 99.417969 192.199219 99.203125 192.632812 99.011719 193.074219 C 98.820312 193.515625 98.652344 193.96875 98.511719 194.425781 C 98.367188 194.886719 98.246094 195.355469 98.152344 195.828125 C 98.058594 196.300781 97.988281 196.773438 97.945312 197.253906 C 97.898438 197.734375 97.882812 198.214844 97.886719 198.699219 C 97.894531 199.179688 97.925781 199.660156 97.984375 200.136719 C 98.039062 200.617188 98.121094 201.089844 98.230469 201.5625 C 98.335938 202.03125 98.46875 202.492188 98.625 202.949219 C 98.78125 203.40625 98.960938 203.851562 99.164062 204.289062 C 99.367188 204.726562 99.59375 205.152344 99.839844 205.5625 C 100.089844 205.976562 100.359375 206.375 100.648438 206.761719 C 100.941406 207.144531 101.25 207.515625 101.578125 207.867188 C 101.910156 208.21875 102.253906 208.550781 102.621094 208.867188 C 102.984375 209.183594 103.363281 209.476562 103.761719 209.753906 C 108.484375 213.023438 113.410156 215.964844 118.53125 218.574219 L 130.230469 244.269531 C 130.542969 244.949219 130.917969 245.59375 131.359375 246.203125 C 131.796875 246.808594 132.289062 247.367188 132.835938 247.878906 C 133.382812 248.390625 133.972656 248.847656 134.609375 249.242188 C 135.242188 249.640625 135.910156 249.972656 136.609375 250.242188 C 137.308594 250.511719 138.027344 250.707031 138.765625 250.835938 C 139.503906 250.96875 140.246094 251.023438 140.996094 251.007812 C 141.746094 250.996094 142.484375 250.90625 143.21875 250.75 C 143.949219 250.59375 144.660156 250.363281 145.347656 250.070312 C 146.367188 249.632812 147.300781 249.054688 148.148438 248.335938 C 149.289062 249.945312 150.453125 251.554688 151.617188 253.167969 C 107.429688 257.207031 64.230469 269.867188 64.230469 289.71875 C 64.230469 313.605469 126.957031 327.878906 187.578125 327.878906 C 248.199219 327.878906 310.929688 313.605469 310.929688 289.71875 C 310.929688 269.867188 267.730469 257.207031 223.539062 253.167969 Z M 147.007812 237.53125 C 147.121094 237.914062 147.195312 238.304688 147.238281 238.703125 C 147.28125 239.097656 147.289062 239.496094 147.257812 239.894531 C 147.230469 240.292969 147.167969 240.6875 147.066406 241.074219 C 146.96875 241.460938 146.835938 241.835938 146.671875 242.199219 C 146.503906 242.5625 146.308594 242.90625 146.078125 243.234375 C 145.851562 243.5625 145.597656 243.867188 145.316406 244.152344 C 145.035156 244.433594 144.726562 244.6875 144.402344 244.917969 C 144.074219 245.144531 143.726562 245.34375 143.363281 245.511719 C 142.972656 245.683594 142.570312 245.8125 142.152344 245.90625 C 141.734375 246 141.3125 246.050781 140.886719 246.0625 C 140.460938 246.074219 140.035156 246.042969 139.613281 245.972656 C 139.191406 245.902344 138.78125 245.789062 138.382812 245.636719 C 137.984375 245.484375 137.601562 245.296875 137.238281 245.070312 C 136.878906 244.847656 136.539062 244.589844 136.226562 244.296875 C 135.914062 244.003906 135.632812 243.6875 135.382812 243.339844 C 135.132812 242.992188 134.917969 242.628906 134.738281 242.238281 L 122.296875 214.90625 L 121.503906 214.511719 C 116.320312 211.925781 111.347656 208.984375 106.585938 205.6875 C 105.558594 204.980469 104.722656 204.09375 104.078125 203.027344 C 103.433594 201.960938 103.039062 200.804688 102.894531 199.570312 C 102.746094 198.347656 102.851562 197.148438 103.210938 195.96875 C 103.570312 194.792969 104.148438 193.738281 104.949219 192.804688 L 105.171875 192.582031 C 105.988281 191.65625 106.960938 190.945312 108.082031 190.4375 C 109.207031 189.933594 110.382812 189.679688 111.617188 189.679688 C 113.503906 189.695312 115.222656 190.238281 116.773438 191.316406 C 120.644531 193.984375 124.648438 196.429688 128.792969 198.652344 L 130.007812 199.320312 L 153.875 185.171875 C 154.910156 184.546875 156.03125 184.242188 157.242188 184.253906 C 157.929688 184.253906 158.601562 184.355469 159.253906 184.5625 C 159.90625 184.769531 160.515625 185.070312 161.074219 185.464844 C 161.636719 185.863281 162.121094 186.332031 162.535156 186.882812 C 162.949219 187.429688 163.265625 188.027344 163.492188 188.675781 C 163.71875 189.324219 163.84375 189.988281 163.859375 190.675781 C 163.878906 191.359375 163.792969 192.03125 163.601562 192.691406 C 163.410156 193.351562 163.121094 193.964844 162.738281 194.53125 C 162.355469 195.101562 161.894531 195.597656 161.359375 196.023438 L 147.554688 207.078125 L 151.988281 208.464844 C 164.511719 212.445312 177.339844 214.503906 190.480469 214.632812 C 192.1875 214.660156 193.898438 214.660156 195.609375 214.609375 C 201.457031 214.460938 207.273438 213.9375 213.058594 213.046875 C 213.058594 213.046875 216.128906 212.527344 216.527344 212.429688 C 216.75 212.390625 216.976562 212.394531 217.199219 212.4375 C 217.421875 212.480469 217.628906 212.5625 217.824219 212.679688 C 218.015625 212.800781 218.183594 212.953125 218.320312 213.132812 C 218.460938 213.3125 218.5625 213.511719 218.625 213.730469 C 218.6875 213.957031 218.703125 214.183594 218.675781 214.414062 C 218.644531 214.648438 218.574219 214.863281 218.464844 215.070312 C 218.351562 215.273438 218.203125 215.449219 218.023438 215.597656 C 217.84375 215.746094 217.640625 215.851562 217.417969 215.921875 C 217.417969 215.921875 214.046875 216.964844 212.808594 217.3125 C 207.332031 218.898438 202.25 220.183594 197.320312 221.25 C 177.886719 225.511719 161.703125 226.058594 146.363281 223.011719 L 142.273438 222.191406 Z M 200.738281 209.40625 L 206.5625 201.824219 C 206.757812 201.5625 207.007812 201.378906 207.320312 201.28125 C 207.628906 201.179688 207.9375 201.179688 208.25 201.277344 C 208.570312 201.351562 208.835938 201.515625 209.046875 201.769531 C 209.261719 202.019531 209.375 202.3125 209.390625 202.640625 L 209.960938 208.464844 L 209.960938 208.488281 C 209.785156 208.515625 203.117188 209.40625 200.738281 209.40625 Z M 211.890625 229.230469 L 211.890625 229.253906 C 211.925781 229.578125 211.867188 229.878906 211.710938 230.164062 C 211.554688 230.449219 211.332031 230.664062 211.042969 230.808594 C 210.75 230.953125 210.445312 231 210.125 230.949219 C 209.804688 230.902344 209.523438 230.765625 209.289062 230.542969 L 203.070312 225.015625 C 205.890625 224.316406 209.265625 223.488281 211.320312 222.886719 Z M 151.269531 244.171875 C 151.933594 242.679688 152.265625 241.121094 152.261719 239.488281 C 152.257812 238.324219 152.09375 237.183594 151.765625 236.070312 L 149.4375 228.585938 C 157.382812 229.703125 165.367188 230.074219 173.382812 229.699219 C 181.398438 229.324219 189.3125 228.210938 197.121094 226.355469 L 205.992188 234.261719 C 207.238281 235.363281 208.691406 235.914062 210.355469 235.921875 C 211.402344 235.914062 212.394531 235.671875 213.328125 235.203125 C 213.914062 234.90625 214.441406 234.527344 214.910156 234.070312 C 215.378906 233.613281 215.773438 233.097656 216.085938 232.523438 C 216.398438 231.949219 216.621094 231.339844 216.753906 230.699219 C 216.882812 230.058594 216.914062 229.410156 216.847656 228.757812 L 216.15625 221.472656 L 218.855469 220.679688 C 219.824219 220.386719 220.679688 219.898438 221.425781 219.214844 C 222.171875 218.535156 222.738281 217.726562 223.121094 216.789062 C 223.226562 216.535156 223.320312 216.273438 223.394531 216.007812 C 223.472656 215.738281 223.53125 215.46875 223.570312 215.195312 C 223.613281 214.921875 223.640625 214.644531 223.648438 214.367188 C 223.65625 214.089844 223.648438 213.8125 223.621094 213.535156 C 223.59375 213.261719 223.550781 212.988281 223.492188 212.714844 C 223.429688 212.445312 223.355469 212.179688 223.261719 211.917969 C 223.167969 211.65625 223.058594 211.402344 222.933594 211.152344 C 222.808594 210.90625 222.671875 210.664062 222.515625 210.433594 C 222.363281 210.203125 222.195312 209.984375 222.011719 209.773438 C 221.832031 209.5625 221.636719 209.367188 221.433594 209.179688 C 221.226562 208.996094 221.007812 208.820312 220.78125 208.664062 C 220.554688 208.503906 220.316406 208.359375 220.074219 208.230469 C 219.828125 208.097656 219.574219 207.984375 219.316406 207.886719 C 219.054688 207.789062 218.792969 207.707031 218.523438 207.640625 C 218.253906 207.574219 217.980469 207.523438 217.703125 207.492188 C 217.429688 207.460938 217.152344 207.445312 216.875 207.449219 C 216.453125 207.449219 215.089844 207.671875 214.839844 207.695312 L 214.347656 202.195312 C 214.285156 201.542969 214.128906 200.910156 213.875 200.304688 C 213.625 199.699219 213.289062 199.144531 212.871094 198.636719 C 212.453125 198.132812 211.96875 197.699219 211.417969 197.339844 C 210.871094 196.976562 210.28125 196.707031 209.652344 196.523438 C 209.019531 196.339844 208.375 196.253906 207.71875 196.265625 C 207.0625 196.273438 206.421875 196.382812 205.796875 196.585938 C 205.175781 196.789062 204.59375 197.078125 204.058594 197.457031 C 203.519531 197.832031 203.050781 198.28125 202.648438 198.800781 L 194.296875 209.679688 C 181.972656 209.90625 169.867188 208.378906 157.988281 205.09375 L 164.457031 199.890625 C 164.921875 199.519531 165.355469 199.113281 165.761719 198.675781 C 166.164062 198.238281 166.53125 197.769531 166.863281 197.277344 C 167.191406 196.78125 167.484375 196.261719 167.734375 195.722656 C 167.984375 195.183594 168.195312 194.625 168.359375 194.054688 C 168.523438 193.480469 168.644531 192.898438 168.71875 192.308594 C 168.792969 191.71875 168.824219 191.125 168.804688 190.527344 C 168.789062 189.933594 168.726562 189.34375 168.621094 188.757812 C 168.511719 188.171875 168.359375 187.597656 168.160156 187.035156 C 167.964844 186.472656 167.726562 185.929688 167.445312 185.402344 C 167.164062 184.878906 166.84375 184.378906 166.484375 183.902344 C 166.128906 183.425781 165.734375 182.980469 165.308594 182.566406 C 164.878906 182.148438 164.421875 181.769531 163.9375 181.425781 C 163.449219 181.082031 162.941406 180.777344 162.40625 180.511719 C 161.875 180.246094 161.324219 180.023438 160.753906 179.839844 C 160.1875 179.660156 159.609375 179.527344 159.019531 179.433594 C 158.433594 179.34375 157.839844 179.296875 157.242188 179.296875 C 155.132812 179.304688 153.167969 179.839844 151.34375 180.910156 L 129.90625 193.621094 C 126.386719 191.6875 122.917969 189.53125 119.597656 187.253906 C 118.078125 186.203125 116.417969 185.484375 114.617188 185.097656 C 104.898438 165.917969 100.019531 150.503906 100.019531 139.253906 C 100.019531 137.820312 100.054688 136.390625 100.125 134.957031 C 100.195312 133.527344 100.300781 132.097656 100.4375 130.671875 C 100.578125 129.246094 100.753906 127.824219 100.964844 126.410156 C 101.175781 124.992188 101.421875 123.582031 101.699219 122.175781 C 101.980469 120.769531 102.292969 119.371094 102.640625 117.984375 C 102.988281 116.59375 103.371094 115.210938 103.789062 113.839844 C 104.203125 112.46875 104.652344 111.109375 105.136719 109.761719 C 105.617188 108.410156 106.132812 107.074219 106.683594 105.753906 C 107.230469 104.429688 107.8125 103.117188 108.425781 101.824219 C 109.039062 100.527344 109.679688 99.25 110.355469 97.984375 C 111.03125 96.722656 111.738281 95.476562 112.476562 94.246094 C 113.210938 93.019531 113.976562 91.808594 114.773438 90.617188 C 115.570312 89.425781 116.394531 88.253906 117.25 87.101562 C 118.101562 85.953125 118.984375 84.824219 119.894531 83.714844 C 120.800781 82.609375 121.738281 81.523438 122.699219 80.460938 C 123.664062 79.398438 124.652344 78.363281 125.664062 77.351562 C 126.675781 76.335938 127.714844 75.347656 128.777344 74.386719 C 129.839844 73.425781 130.921875 72.488281 132.03125 71.582031 C 133.136719 70.671875 134.269531 69.789062 135.417969 68.9375 C 136.570312 68.082031 137.742188 67.257812 138.933594 66.460938 C 140.125 65.667969 141.335938 64.898438 142.5625 64.164062 C 143.792969 63.425781 145.039062 62.71875 146.304688 62.046875 C 147.566406 61.371094 148.847656 60.726562 150.140625 60.113281 C 151.4375 59.5 152.746094 58.921875 154.070312 58.371094 C 155.394531 57.824219 156.730469 57.308594 158.082031 56.824219 C 159.429688 56.34375 160.789062 55.894531 162.160156 55.476562 C 163.53125 55.0625 164.914062 54.679688 166.304688 54.332031 C 167.695312 53.984375 169.089844 53.667969 170.496094 53.390625 C 171.902344 53.109375 173.3125 52.867188 174.730469 52.65625 C 176.148438 52.445312 177.570312 52.269531 178.996094 52.128906 C 180.421875 51.988281 181.851562 51.882812 183.28125 51.8125 C 184.714844 51.742188 186.144531 51.707031 187.578125 51.707031 C 189.011719 51.707031 190.445312 51.742188 191.875 51.8125 C 193.308594 51.882812 194.734375 51.988281 196.160156 52.128906 C 197.585938 52.269531 199.007812 52.445312 200.425781 52.65625 C 201.84375 52.867188 203.257812 53.109375 204.660156 53.390625 C 206.066406 53.667969 207.464844 53.984375 208.855469 54.332031 C 210.246094 54.679688 211.625 55.0625 212.996094 55.476562 C 214.367188 55.894531 215.726562 56.34375 217.078125 56.824219 C 218.425781 57.308594 219.761719 57.824219 221.085938 58.371094 C 222.410156 58.921875 223.722656 59.5 225.015625 60.113281 C 226.3125 60.726562 227.589844 61.371094 228.855469 62.046875 C 230.117188 62.71875 231.367188 63.425781 232.59375 64.164062 C 233.824219 64.898438 235.035156 65.667969 236.226562 66.460938 C 237.417969 67.257812 238.589844 68.082031 239.738281 68.9375 C 240.890625 69.789062 242.019531 70.671875 243.128906 71.578125 C 244.234375 72.488281 245.320312 73.425781 246.382812 74.386719 C 247.445312 75.347656 248.480469 76.335938 249.496094 77.351562 C 250.507812 78.363281 251.496094 79.398438 252.457031 80.460938 C 253.421875 81.523438 254.355469 82.609375 255.265625 83.714844 C 256.175781 84.824219 257.054688 85.953125 257.910156 87.101562 C 258.761719 88.253906 259.585938 89.425781 260.382812 90.617188 C 261.179688 91.808594 261.945312 93.019531 262.683594 94.246094 C 263.417969 95.476562 264.125 96.722656 264.800781 97.984375 C 265.476562 99.25 266.121094 100.527344 266.734375 101.824219 C 267.347656 103.117188 267.925781 104.429688 268.476562 105.753906 C 269.023438 107.074219 269.539062 108.410156 270.023438 109.761719 C 270.503906 111.109375 270.953125 112.46875 271.371094 113.839844 C 271.785156 115.210938 272.167969 116.59375 272.515625 117.984375 C 272.863281 119.371094 273.179688 120.769531 273.457031 122.175781 C 273.738281 123.582031 273.984375 124.992188 274.191406 126.410156 C 274.402344 127.824219 274.578125 129.246094 274.71875 130.671875 C 274.859375 132.097656 274.964844 133.527344 275.035156 134.957031 C 275.105469 136.390625 275.140625 137.820312 275.140625 139.253906 C 275.140625 156.277344 264.011719 180.511719 249.8125 204.523438 C 244.410156 205.914062 238.742188 207.117188 232.808594 208.140625 C 232.496094 208.1875 232.199219 208.285156 231.925781 208.441406 C 231.648438 208.601562 231.410156 208.800781 231.214844 209.050781 C 231.015625 209.296875 230.871094 209.574219 230.777344 209.878906 C 230.6875 210.179688 230.652344 210.492188 230.679688 210.808594 C 230.707031 211.125 230.792969 211.425781 230.933594 211.707031 C 231.078125 211.992188 231.265625 212.238281 231.503906 212.449219 C 231.742188 212.660156 232.007812 212.820312 232.308594 212.925781 C 232.605469 213.035156 232.914062 213.082031 233.230469 213.074219 C 233.363281 213.070312 233.496094 213.050781 233.628906 213.023438 C 237.941406 212.304688 242.128906 211.460938 246.191406 210.496094 C 236.414062 226.929688 218.226562 252.304688 212.957031 259.1875 C 212.019531 260.414062 202.894531 272.46875 200.515625 275.492188 C 200.132812 275.984375 199.726562 276.449219 199.289062 276.894531 C 198.855469 277.339844 198.394531 277.757812 197.914062 278.148438 C 197.429688 278.539062 196.925781 278.902344 196.402344 279.238281 C 195.878906 279.570312 195.335938 279.875 194.777344 280.148438 C 194.21875 280.421875 193.648438 280.660156 193.0625 280.867188 C 192.476562 281.078125 191.878906 281.25 191.273438 281.390625 C 190.667969 281.53125 190.054688 281.636719 189.4375 281.707031 C 188.820312 281.777344 188.199219 281.8125 187.578125 281.8125 C 186.957031 281.8125 186.335938 281.777344 185.71875 281.707031 C 185.101562 281.636719 184.492188 281.53125 183.882812 281.390625 C 183.277344 281.25 182.683594 281.078125 182.097656 280.867188 C 181.511719 280.660156 180.9375 280.421875 180.378906 280.148438 C 179.820312 279.875 179.28125 279.570312 178.757812 279.238281 C 178.230469 278.902344 177.726562 278.539062 177.246094 278.148438 C 176.761719 277.757812 176.304688 277.339844 175.867188 276.894531 C 175.433594 276.449219 175.023438 275.984375 174.640625 275.492188 C 169.066406 268.355469 153.253906 246.972656 151.269531 244.171875 Z M 187.578125 322.921875 C 116.773438 322.921875 69.1875 305.75 69.1875 289.71875 C 69.1875 275.320312 105.199219 261.964844 155.011719 257.824219 L 155.039062 257.824219 C 156.300781 259.558594 168.667969 275.914062 170.726562 278.542969 C 171.222656 279.179688 171.757812 279.789062 172.324219 280.367188 C 172.890625 280.945312 173.488281 281.488281 174.117188 281.996094 C 174.746094 282.507812 175.402344 282.980469 176.085938 283.414062 C 176.769531 283.851562 177.472656 284.246094 178.203125 284.601562 C 178.929688 284.957031 179.675781 285.269531 180.4375 285.539062 C 181.203125 285.8125 181.976562 286.039062 182.765625 286.21875 C 183.554688 286.402344 184.351562 286.539062 185.15625 286.628906 C 185.960938 286.722656 186.769531 286.769531 187.578125 286.769531 C 188.390625 286.769531 189.195312 286.722656 190 286.628906 C 190.804688 286.539062 191.601562 286.402344 192.390625 286.21875 C 193.179688 286.039062 193.957031 285.8125 194.71875 285.539062 C 195.484375 285.269531 196.230469 284.957031 196.957031 284.601562 C 197.683594 284.246094 198.390625 283.851562 199.070312 283.414062 C 199.753906 282.980469 200.410156 282.507812 201.039062 281.996094 C 201.667969 281.488281 202.265625 280.945312 202.835938 280.367188 C 203.402344 279.789062 203.933594 279.179688 204.433594 278.542969 C 209.808594 271.652344 215.089844 264.714844 220.121094 257.824219 L 220.144531 257.824219 C 269.960938 261.964844 305.972656 275.320312 305.972656 289.71875 C 305.972656 305.75 258.386719 322.921875 187.578125 322.921875 Z M 187.578125 322.921875 " fill-opacity="1" fill-rule="nonzero"/></g><path fill="#214a50" d="M 89.683594 190.039062 C 79.753906 183.648438 74.023438 176.410156 73.109375 169.128906 C 73.070312 168.804688 72.964844 168.496094 72.804688 168.210938 C 72.640625 167.925781 72.429688 167.683594 72.171875 167.480469 C 71.910156 167.28125 71.621094 167.136719 71.304688 167.050781 C 70.988281 166.960938 70.667969 166.9375 70.339844 166.980469 C 70.015625 167.019531 69.710938 167.121094 69.425781 167.285156 C 69.140625 167.449219 68.894531 167.660156 68.695312 167.917969 C 68.492188 168.175781 68.347656 168.464844 68.261719 168.78125 C 68.171875 169.097656 68.148438 169.421875 68.191406 169.746094 C 69.289062 178.535156 75.796875 186.992188 87 194.207031 C 87.273438 194.394531 87.574219 194.515625 87.898438 194.578125 C 88.222656 194.640625 88.546875 194.636719 88.871094 194.566406 C 89.195312 194.5 89.492188 194.367188 89.761719 194.175781 C 90.03125 193.984375 90.253906 193.746094 90.425781 193.464844 C 90.597656 193.1875 90.710938 192.886719 90.765625 192.566406 C 90.820312 192.242188 90.816406 191.921875 90.746094 191.601562 C 90.675781 191.285156 90.550781 190.988281 90.367188 190.71875 C 90.183594 190.449219 89.953125 190.222656 89.683594 190.039062 Z M 89.683594 190.039062 " fill-opacity="1" fill-rule="nonzero"/><path fill="#214a50" d="M 306.476562 161.625 C 306.398438 161.304688 306.257812 161.015625 306.0625 160.75 C 305.867188 160.488281 305.628906 160.269531 305.347656 160.101562 C 305.066406 159.933594 304.761719 159.824219 304.4375 159.777344 C 304.113281 159.726562 303.792969 159.742188 303.472656 159.820312 C 303.15625 159.902344 302.863281 160.039062 302.601562 160.234375 C 302.335938 160.429688 302.117188 160.664062 301.949219 160.945312 C 301.78125 161.226562 301.671875 161.53125 301.621094 161.855469 C 301.570312 162.179688 301.585938 162.5 301.664062 162.820312 C 302.007812 164.195312 302.179688 165.589844 302.183594 167.003906 C 302.183594 174.515625 297.085938 182.03125 287.4375 188.730469 C 287.179688 188.925781 286.964844 189.160156 286.792969 189.4375 C 286.625 189.714844 286.511719 190.011719 286.453125 190.332031 C 286.394531 190.652344 286.398438 190.972656 286.460938 191.289062 C 286.523438 191.609375 286.644531 191.90625 286.820312 192.179688 C 287.734375 193.828125 289.835938 193.097656 290.269531 192.796875 C 301.304688 185.132812 307.140625 176.210938 307.140625 167.003906 C 307.136719 165.183594 306.917969 163.390625 306.476562 161.625 Z M 306.476562 161.625 " fill-opacity="1" fill-rule="nonzero"/></svg>